<svg id="_x31_px" enable-background="new 0 0 24 24" height="512" viewBox="0 0 24 24" width="512" xmlns="http://www.w3.org/2000/svg"><path d="m12 8.75c-.276 0-.5-.224-.5-.5v-7.75c0-.276.224-.5.5-.5s.5.224.5.5v7.75c0 .277-.224.5-.5.5z"/><path d="m12 9c-.128 0-.256-.049-.354-.146l-2.5-2.5c-.195-.195-.195-.512 0-.707s.512-.195.707 0l2.147 2.146 2.146-2.146c.195-.195.512-.195.707 0s.195.512 0 .707l-2.5 2.5c-.097.097-.225.146-.353.146z"/><path d="m12 13c-.072 0-.145-.016-.211-.047l-7.5-3.5c-.177-.082-.289-.259-.289-.453s.113-.371.289-.453l2.6-1.21c.251-.117.548-.008.664.242.117.251.009.548-.242.664l-1.627.757 6.316 2.948 6.316-2.948-1.627-.757c-.25-.116-.359-.414-.242-.664.116-.25.412-.359.664-.242l2.6 1.21c.176.082.289.258.289.453s-.112.372-.289.454l-7.5 3.5c-.066.03-.139.046-.211.046z"/><path d="m11.5 12.5h1v11h-1z"/><path d="m12 24c-.229 0-.448-.05-.651-.149l-7.065-3.4c-.174-.084-.284-.259-.284-.451v-11h1v10.686l6.784 3.265c.136.066.298.065.431.001l6.785-3.266v-10.686h1v11c0 .192-.11.367-.283.451l-7.067 3.401c-.202.098-.421.148-.65.148z"/></svg>