<?xml version="1.0" encoding="utf-8"?>
<!-- Generator: Adobe Illustrator 24.1.3, SVG Export Plug-In . SVG Version: 6.00 Build 0)  -->
<svg version="1.1" id="Camada_1" xmlns="http://www.w3.org/2000/svg" xmlns:xlink="http://www.w3.org/1999/xlink" x="0px" y="0px"
	 viewBox="0 0 511 511" style="enable-background:new 0 0 511 511;" xml:space="preserve">
<!--
<style type="text/css">
	.st0{fill:none;stroke:#000000;stroke-width:7;stroke-miterlimit:10;}
</style>
-->
<path d="M442.3,171.6l-24.9-42.5c0-0.1-1-1.5-1-1.5c-1.1-1.2-2.4-2.2-4-2.8c0,0-54.3-18.2-92.7-31c-5-1.7-10.5,0.9-12.4,5.9
	c0,0.1-0.1,0.2-0.1,0.2c-2,5.2,0.8,11,6.1,12.8l66,22.1l-134.1,51.7l-134.1-51.7l53.9-18c5.8-1.9,8.5-8.6,5.6-13.9
	c0-0.1-0.1-0.1-0.1-0.2c-2.3-4.3-7.3-6.3-11.9-4.8c-40.7,13.6-80.8,27-80.8,27c-2.1,0.9-3.8,2.4-4.9,4.2l-24.9,42.5
	c-3.9,6.6-4.6,14.5-2.2,21.7c2.5,7.2,8,13,15.1,15.8l10.6,4.2v161.6c0,11.9,7.5,22.7,18.6,26.8l151.4,56.9c1.1,0.4,2.3,0.6,3.5,0.6
	c1.2,0,2.4-0.2,3.5-0.6l151.4-56.9c11.1-4.2,18.6-15,18.6-26.8V213.3l10.6-4.2c7.1-2.8,12.6-8.6,15.1-15.8
	C446.9,186.1,446.1,178.1,442.3,171.6z M68.4,190.5c-2.3-0.9-3.2-2.7-3.6-3.7c-0.3-1-0.7-3,0.5-5.1L86,146.5L230,202l-24.9,37.5
	c-1.6,2.4-4.7,3.4-7.4,2.3L68.4,190.5z M235.2,289.2v145.7l-138-51.8c-3.4-1.3-5.7-4.6-5.7-8.2V221.2l98.7,39.2
	c3.1,1.2,6.4,1.8,9.6,1.8c8.6,0,16.9-4.2,21.8-11.7l13.5-20.4C235.2,230.2,234,267.2,235.2,289.2z M398.8,374.9
	c0,3.6-2.3,6.9-5.7,8.2l-137.9,51.8V230.2l13.5,20.4c4.9,7.4,13.3,11.7,21.8,11.7c3.2,0,6.5-0.6,9.6-1.8l98.7-39.2V374.9z
	 M425.6,186.8c-0.3,1-1.3,2.8-3.6,3.7l-129.2,51.3c-2.7,1.1-5.8,0.1-7.4-2.3L260.4,202l144-55.5l20.6,35.2
	C426.3,183.8,425.9,185.8,425.6,186.8z"/>
<circle class="st0" cx="281.4" cy="96.4" r="10.7"/>
<circle class="st0" cx="289.6" cy="139.2" r="16"/>
<circle class="st0" cx="243.8" cy="131.3" r="8.9"/>
<circle class="st0" cx="207.4" cy="128.6" r="10.7"/>
<circle class="st0" cx="199.2" cy="85.8" r="16"/>
<circle class="st0" cx="245" cy="93.6" r="8.9"/>
<circle class="st0" cx="231.2" cy="48.6" r="10.7"/>
<circle class="st0" cx="267.1" cy="60.7" r="8.9"/>
</svg>
