<svg id="Camada_1" data-name="Camada 1" xmlns="http://www.w3.org/2000/svg" viewBox="300 300 480 520"><title>seadra-logo-v3</title><rect width="1080" height="1080" style="fill:#060129"/><path d="M322.35,708.83l4.5-10.1c5.61,4.5,14.51,7.7,23.11,7.7,10.9,0,15.5-3.9,15.5-9.1,0-15.1-41.61-5.2-41.61-31.2,0-11.31,9-20.91,28.21-20.91,8.4,0,17.2,2.2,23.3,6.2l-4.1,10.11A38.92,38.92,0,0,0,352,656c-10.8,0-15.2,4.21-15.2,9.51,0,14.9,41.5,5.2,41.5,30.9,0,11.2-9.1,20.8-28.3,20.8C339.06,717.23,328.16,713.83,322.35,708.83Z" style="fill:#5bf69b"/><path d="M443.66,705.33v10.9H391.15v-70h51.11v10.91h-38.1v18.2H438V686h-33.8v19.3Z" style="fill:#5bf69b"/><path d="M503.56,700h-35l-6.9,16.2H448.25l31.51-70h12.8l31.6,70h-13.6Zm-4.3-10.2-13.2-30.6L473,689.83Z" style="fill:#5bf69b"/><path d="M533.05,646.22h30.61c22.7,0,38.2,14,38.2,35s-15.5,35-38.2,35H533.05Zm30,59c15.6,0,25.7-9.5,25.7-24s-10.1-24-25.7-24h-17v48Z" style="fill:#5bf69b"/><path d="M661.46,716.23l-14.31-20.5a24.37,24.37,0,0,1-2.7.1h-15.8v20.4h-13v-70h28.8c18.41,0,29.81,9.41,29.81,24.91,0,10.6-5.4,18.4-14.9,22.1l16.1,23Zm-17.61-59h-15.2v27.9h15.2c11.41,0,17.31-5.2,17.31-14S655.26,657.23,643.85,657.23Z" style="fill:#5bf69b"/><path d="M734.15,700h-35l-6.9,16.2h-13.4l31.5-70h12.8l31.61,70H741.15Zm-4.3-10.2-13.2-30.6-13.1,30.6Z" style="fill:#5bf69b"/><path d="M591.36,420.48l-9.07,22.31a6.18,6.18,0,0,1-8.07,3.37l-23.54-9.81A6.16,6.16,0,0,1,555.42,425l17.8,7.42L578,420.64a147.81,147.81,0,0,1-45.64-46.5,91.83,91.83,0,0,0-9.88,9l-.11.11-.3.32a5.08,5.08,0,0,1-2.79,1.36l-13.61,1.57,3.27,12.7a5,5,0,0,1-.57,3.4l-.09.17a87.65,87.65,0,0,0-5.1,11.5l-.32.92a5.06,5.06,0,0,1-1.88,2.13l-11.8,7,8.15,10.27a5.11,5.11,0,0,1,.86,2.26c-.07.66-.12,1.31-.16,2a96.79,96.79,0,0,0,1.35,24.39,6.15,6.15,0,0,1-4.93,7.17,5.48,5.48,0,0,1-1.13.11,6.15,6.15,0,0,1-6-5,109.08,109.08,0,0,1-1.34-29.75l-7-10.19a5,5,0,0,1,1.47-7.07L491,411.76q3.54-8,7.09-16v0l-2.29-12.3a5,5,0,0,1,4.22-5.86l12.48-1.76c.28-.31.56-.62.85-.92a105.2,105.2,0,0,1,17.41-14.81,6.15,6.15,0,0,1,8.83,2.11,135.75,135.75,0,0,0,49.22,50.71A6.14,6.14,0,0,1,591.36,420.48Z" style="fill:#5bf69b"/><path d="M601.68,542.21a62.86,62.86,0,0,1-13.32,32.22,71.48,71.48,0,0,1-5.7,6.26,64.57,64.57,0,0,1-9.92,7.95,54.15,54.15,0,0,1-29.93,9h-.65c-27.21-.32-42.84-20.28-45.7-24.27a6.15,6.15,0,1,1,10-7.16c1.38,1.93,14.11,18.86,35.83,19.12a41.82,41.82,0,0,0,22.16-6.08,51.38,51.38,0,0,0,9.78-7.59,57.41,57.41,0,0,0,4.53-5,50.27,50.27,0,0,0,10.67-25.81c.46-4.23.85-15.51-5.39-28.9-8.55-18.35-23.36-26.89-37.67-35.14s-27.76-16-30.87-32.45c-2.17-11.51,1.09-23.89,9.7-36.81a6.15,6.15,0,1,1,10.24,6.83c-6.76,10.14-9.4,19.46-7.84,27.69,2.06,10.88,12.15,16.7,24.92,24.07,14.47,8.35,32.48,18.74,42.68,40.61C602.76,523,602.25,537,601.68,542.21Z" style="fill:#5bf69b"/><path d="M498.58,546.19h-.42a6.15,6.15,0,0,1-5.73-6.55,39.91,39.91,0,0,1,12.92-26.84,39.22,39.22,0,0,1,27.59-10.43c20.2.53,37.08,16.9,38.43,37.27a6.16,6.16,0,1,1-12.29.81c-.93-14.09-12.55-25.41-26.46-25.77-14.41-.39-26.93,11.18-27.91,25.78A6.14,6.14,0,0,1,498.58,546.19Z" style="fill:#5bf69b"/><path d="M498.19,436.84a5.57,5.57,0,0,1,0,1.08,5.35,5.35,0,0,1-.17.87C498.07,438.15,498.12,437.5,498.19,436.84Z" style="fill:#5bf69b"/><path d="M503.16,414.33a1.6,1.6,0,0,1-.05.21c0,.14-.09.27-.14.41a2.72,2.72,0,0,1-.11.25Q503,414.77,503.16,414.33Z" style="fill:#5bf69b"/><path d="M485.83,751h-9v-2.35h20.76V751h-9v23.33h-2.71Z" style="fill:#5bf69b"/><path d="M519.43,774.35l-5.87-8.26a16.8,16.8,0,0,1-2,.11h-6.9v8.15H501.9V748.67h9.61c6.53,0,10.49,3.3,10.49,8.8a8,8,0,0,1-5.87,8.07l6.28,8.81Zm-.14-16.88c0-4.11-2.72-6.45-7.85-6.45h-6.83v12.87h6.83C516.57,763.89,519.29,761.51,519.29,757.47Z" style="fill:#5bf69b"/><path d="M544.53,767.49H530.22l-3.08,6.86h-2.82l11.74-25.68h2.67l11.74,25.68h-2.86Zm-1-2.21-6.16-13.79-6.17,13.79Z" style="fill:#5bf69b"/><path d="M554.73,748.67h10.46c8.21,0,13.75,5.28,13.75,12.84s-5.54,12.84-13.75,12.84H554.73ZM565,772c6.82,0,11.22-4.33,11.22-10.49S571.86,751,565,751h-7.59v21Z" style="fill:#5bf69b"/><path d="M603.19,772v2.35H585V748.67h17.6V751H587.75v9.13H601v2.31H587.75V772Z" style="fill:#5bf69b"/></svg>