<?xml version="1.0" encoding="utf-8"?>
<!-- Generator: Adobe Illustrator 24.1.3, SVG Export Plug-In . SVG Version: 6.00 Build 0)  -->
<svg version="1.1" id="Camada_1" xmlns="http://www.w3.org/2000/svg" xmlns:xlink="http://www.w3.org/1999/xlink" x="0px" y="0px"
	 viewBox="130 360 850 330" style="enable-background:new 0 0 1080 1080;" xml:space="preserve">
<style type="text/css">
	.st0{fill:#5BF69B;}
</style>
<g>
	<path class="st0" d="M289.6,441.5l-12.3,30.3c-1.8,4.3-6.7,6.3-10.9,4.6c0,0,0,0,0,0l-32-13.3c-4.2-2-5.9-7-3.9-11.2
		c1.9-3.8,6.3-5.6,10.3-4.2l24.2,10.1l6.5-16c-25.1-16.2-46.3-37.7-62-63.1c-4.8,3.7-9.2,7.8-13.4,12.2l-0.1,0.1l-0.4,0.4
		c-1,1-2.4,1.6-3.8,1.8l-18.5,2.1l4.4,17.2c0.3,1.6,0,3.2-0.8,4.6l-0.1,0.2c-2.7,5-5,10.3-6.9,15.6l-0.4,1.2
		c-0.6,1.2-1.4,2.2-2.6,2.9l-16,9.5l11.1,13.9c0.6,0.9,1,2,1.2,3.1c-0.1,0.9-0.2,1.8-0.2,2.7c-0.8,11.1-0.2,22.2,1.8,33.1
		c0.8,4.5-2.2,8.9-6.7,9.7c0,0,0,0,0,0c-0.5,0.1-1,0.2-1.5,0.1c-4,0-7.4-2.9-8.1-6.8c-2.5-13.3-3.1-26.9-1.8-40.4l-9.5-13.8
		c-2.1-3.1-1.3-7.3,1.8-9.4c0.1-0.1,0.2-0.1,0.2-0.2l14.3-9.2c3.2-7.2,6.4-14.5,9.6-21.7l0,0l-3.1-16.7c-0.7-3.7,1.8-7.2,5.4-7.9
		c0.1,0,0.2,0,0.3,0l16.9-2.4c0.4-0.4,0.8-0.8,1.2-1.2c7.1-7.5,15.1-14.3,23.6-20.1c3.8-2.6,9-1.6,11.6,2.2c0.1,0.2,0.3,0.4,0.4,0.6
		c15.8,28.5,38.9,52.2,66.8,68.9C289.7,433.3,291.1,437.7,289.6,441.5z"/>
	<path class="st0" d="M303.6,606.7c-1.8,16-8.1,31.2-18.1,43.8c-2.4,3-5,5.8-7.7,8.5c-4.1,4-8.6,7.6-13.5,10.8
		c-12.1,8-26.2,12.2-40.6,12.2h-0.9c-36.9-0.4-58.2-27.5-62.1-33c-2.7-3.7-1.9-8.9,1.8-11.7c3.7-2.7,8.9-1.9,11.7,1.8
		c0,0.1,0.1,0.1,0.1,0.2c1.9,2.6,19.2,25.6,48.7,26c10.6,0.1,21-2.7,30.1-8.3c4.8-2.9,9.3-6.3,13.3-10.3c2.2-2.1,4.2-4.4,6.2-6.8
		c8-10.1,13.1-22.2,14.5-35c0.6-5.7,1.2-21.1-7.3-39.2c-11.6-24.9-31.7-36.5-51.2-47.7c-19.4-11.2-37.7-21.7-41.9-44.1
		c-2.9-15.6,1.5-32.4,13.2-50c2.6-3.8,7.7-4.9,11.6-2.3c3.8,2.6,4.9,7.7,2.3,11.6c-9.2,13.8-12.8,26.4-10.6,37.6
		c2.8,14.8,16.5,22.7,33.8,32.7c19.6,11.3,44.1,25.4,58,55.1C305.1,580.7,304.4,599.7,303.6,606.7z"/>
	<path class="st0" d="M163.6,612.2h-0.6c-4.6-0.3-8.1-4.3-7.8-8.9c0,0,0,0,0,0c0.9-14,7.2-27,17.5-36.4
		c10.2-9.4,23.6-14.5,37.5-14.2c27.4,0.7,50.3,22.9,52.2,50.6c0.4,4.6-3,8.7-7.6,9.1c-4.6,0.4-8.7-3-9.1-7.6c0-0.1,0-0.3,0-0.4
		c-1.3-19.1-17-34.5-35.9-35c-19.6-0.5-36.6,15.2-37.9,35C171.7,608.8,168,612.2,163.6,612.2z"/>
</g>
<path class="st0" d="M664.8,43c0.1,0.6,0.1,1.3,0,1.9c-0.1,0.5-0.2,1.1-0.3,1.6C664.6,45.4,664.6,44.2,664.8,43z"/>
<path class="st0" d="M673.7,2.5c0,0.1-0.1,0.3-0.1,0.4c0,0.3-0.2,0.5-0.3,0.7c-0.1,0.2-0.1,0.3-0.2,0.4
	C673.3,3.6,673.5,3.1,673.7,2.5z"/>
<g>
	<g>
		<path class="st0" d="M352.3,518.7l6.1-13.7c7.6,6.1,19.7,10.5,31.4,10.5c14.8,0,21-5.3,21-12.4c0-20.5-56.5-7.1-56.5-42.4
			c0-15.4,12.2-28.4,38.3-28.4c11.4,0,23.4,3,31.6,8.4l-5.6,13.7c-7.9-4.7-16.9-7.3-26.2-7.5c-14.7,0-20.6,5.7-20.6,12.9
			c0,20.2,56.4,7.1,56.4,42c0,15.2-12.4,28.2-38.4,28.2C375,530.1,360.2,525.5,352.3,518.7z"/>
		<path class="st0" d="M517,514v14.8h-71.3v-95h69.4v14.8h-51.7v24.7h45.9v14.5h-45.9v26.2L517,514z"/>
		<path class="st0" d="M598.4,506.7h-47.5l-9.4,22h-18.2l42.8-95h17.4l42.9,95h-18.5L598.4,506.7z M592.5,492.9l-17.9-41.6
			l-17.7,41.6L592.5,492.9z"/>
		<path class="st0" d="M638.4,433.7H680c30.8,0,51.9,19,51.9,47.5c0,28.5-21,47.5-51.9,47.5h-41.6V433.7z M679.1,513.8
			c21.2,0,34.9-12.9,34.9-32.6s-13.7-32.6-34.9-32.6H656v65.2H679.1z"/>
		<path class="st0" d="M812.8,528.8l-19.4-27.8c-1.2,0.1-2.4,0.2-3.7,0.1h-21.5v27.7h-17.7v-95h39.1c25,0,40.5,12.8,40.5,33.8
			c0,14.4-7.3,25-20.2,30l21.9,31.2L812.8,528.8z M788.8,448.7h-20.6v37.9h20.6c15.5,0,23.5-7.1,23.5-19
			C812.4,455.6,804.3,448.7,788.8,448.7L788.8,448.7z"/>
		<path class="st0" d="M911.5,506.7h-47.5l-9.4,22h-18.2l42.8-95h17.4l42.9,95H921L911.5,506.7z M905.6,492.9l-17.9-41.6l-17.8,41.6
			H905.6z"/>
	</g>
	<g>
		<path class="st0" d="M364.5,576h-12.2v-3.2h28.2v3.2h-12.2v31.7h-3.7L364.5,576z"/>
		<path class="st0" d="M410.1,607.7l-8-11.2c-0.9,0.1-1.8,0.2-2.7,0.1h-9.4v11.1h-3.7v-34.9h13c8.9,0,14.2,4.5,14.2,11.9
			c0.2,5.1-3.1,9.6-8,11l8.5,12H410.1z M410,584.8c0-5.6-3.7-8.8-10.7-8.8H390v17.5h9.3C406.3,593.5,410,590.3,410,584.8z"/>
		<path class="st0" d="M444.2,598.4h-19.4l-4.2,9.3h-3.8l15.9-34.9h3.6l15.9,34.9h-3.9L444.2,598.4z M442.9,595.4l-8.4-18.7
			l-8.4,18.7H442.9z"/>
		<path class="st0" d="M458.1,572.8h14.2c11.1,0,18.7,7.2,18.7,17.4c0,10.3-7.5,17.4-18.7,17.4h-14.2V572.8z M472,604.5
			c9.3,0,15.2-5.9,15.2-14.2S481.3,576,472,576h-10.3v28.5H472z"/>
		<path class="st0" d="M523.9,604.5v3.2h-24.7v-34.9h23.9v3.2h-20.2v12.4h18v3.1h-18v13H523.9z"/>
	</g>
</g>
</svg>
