<svg id="Layer_1" enable-background="new 0 0 496 496" height="512" viewBox="0 0 496 496" width="512" xmlns="http://www.w3.org/2000/svg"><path d="m127.445 306.529 19.541 6.738c37.858 13.054 39.074 66.823 1.014 81.069 0 10.222-7.638 16.688-16 16.688-8.278 0-16-6.369-16-16.688-16.346-6.119-28.017-21.895-28.017-40.351 0-8.837 7.163-16 16-16s16 7.163 16 16c0 6.104 4.967 11.071 11.071 11.071h1.891c12.492 0 15.33-17.496 3.609-21.538l-19.541-6.738c-37.857-13.052-39.073-66.822-1.013-81.068 0-10.222 7.638-16.688 16-16.688 8.278 0 16 6.369 16 16.688 16.346 6.119 28.017 21.895 28.017 40.351 0 8.837-7.163 16-16 16s-16-7.163-16-16c0-6.104-4.967-11.071-11.071-11.071h-1.891c-12.492-.001-15.33 17.495-3.61 21.537zm136.555 18.495c0 72.785-59.215 132-132 132s-132-59.214-132-132 59.215-132 132-132 132 59.215 132 132zm-32 0c0-55.141-44.859-100-100-100s-100 44.859-100 100 44.859 100 100 100 100-44.859 100-100zm248 100h-11v-264c0-8.837-7.163-16-16-16s-16 7.163-16 16v264h-81v-200c0-8.837-7.163-16-16-16s-16 7.163-16 16v200h-68c-8.837 0-16 7.163-16 16s7.163 16 16 16h224c8.837 0 16-7.163 16-16s-7.163-16-16-16zm-233.687-213.686 57.187-57.186 25.187 25.186c6.248 6.248 16.379 6.248 22.627 0l85.686-85.687v7.373c0 8.837 7.163 16 16 16s16-7.163 16-16c0-50.776.076-46.466-.177-48.258-.775-5.459-4.362-10.313-9.706-12.525-3.957-1.638-2.731-1.217-52.117-1.217-8.837 0-16 7.163-16 16s7.163 16 16 16h7.373l-74.373 74.372-25.187-25.186c-6.248-6.248-16.379-6.248-22.627 0l-68.5 68.5c-6.249 6.248-6.249 16.379 0 22.627 6.25 6.25 16.379 6.249 22.627.001z"/></svg>