<?xml version="1.0" encoding="iso-8859-1"?>
<!-- Generator: Adobe Illustrator 19.0.0, SVG Export Plug-In . SVG Version: 6.00 Build 0)  -->
<svg version="1.1" id="Capa_1" xmlns="http://www.w3.org/2000/svg" xmlns:xlink="http://www.w3.org/1999/xlink" x="0px" y="0px"
	 viewBox="0 0 512.001 512.001" style="enable-background:new 0 0 512.001 512.001;" xml:space="preserve">
<g>
	<g>
		<path d="M196.003,91.001c-24.813,0-45,20.187-45,45c0,24.813,20.187,45,45,45c24.813,0,45-20.187,45-45
			S220.816,91.001,196.003,91.001z M196.003,151.001c-8.271,0-15-6.729-15-15s6.729-15,15-15s15,6.729,15,15
			S204.274,151.001,196.003,151.001z"/>
	</g>
</g>
<g>
	<g>
		<path d="M316.003,211.001c-24.813,0-45,20.187-45,45c0,24.813,20.187,45,45,45s45-20.187,45-45S340.816,211.001,316.003,211.001z
			 M316.003,271.001c-8.271,0-15-6.729-15-15c0-8.271,6.729-15,15-15s15,6.729,15,15
			C331.003,264.272,324.274,271.001,316.003,271.001z"/>
	</g>
</g>
<g>
	<g>
		<path d="M324.323,93.52c-6.893-4.594-16.206-2.732-20.801,4.161l-120,180c-4.596,6.893-2.733,16.206,4.16,20.801
			c6.897,4.597,16.209,2.729,20.801-4.161l120-180C333.079,107.428,331.217,98.115,324.323,93.52z"/>
	</g>
</g>
<g>
	<g>
		<path d="M497.003,301.001h-76v-286c0-8.284-6.716-15-15-15h-300c-8.284,0-15,6.716-15,15v286h-76
			c-14.339,0-20.512,18.354-9.008,26.994l241,181c5.336,4.008,12.68,4.008,18.016,0l241-181
			C517.476,319.383,511.39,301.001,497.003,301.001z M256.003,478.241l-196.05-147.24h46.05c8.284,0,15-6.716,15-15v-286h270v286
			c0,8.284,6.716,15,15,15h46.05L256.003,478.241z"/>
	</g>
</g>
</svg>
