<?xml version="1.0" encoding="iso-8859-1"?>
<!-- Generator: Adobe Illustrator 19.0.0, SVG Export Plug-In . SVG Version: 6.00 Build 0)  -->
<svg xmlns="http://www.w3.org/2000/svg" xmlns:xlink="http://www.w3.org/1999/xlink" version="1.1" id="Layer_1" x="0px" y="0px" viewBox="0 0 512 512" style="enable-background:new 0 0 512 512;" xml:space="preserve" width="512" height="512">
<g>
	<path d="M302,220.714l-47.321,46.545l-118.642-88.981L30,257.149v-52.611l105.963-78.815l121.474,91.105L422,51.355V92h30V0h-90v30   h38.927L254.563,177.173L136.037,88.278L30,167.149V0H0v452h302v60c5.376,0,199.495,0,210,0V212H302V220.714z M121,422H91V249.165   l30-22.314V422z M151,227l30,22.5V422h-30V227z M211,272l30,22.5V422h-30V272z M30,294.537l31-23.058V422H30V294.537z M271,422   V293.286l31-30.492V422H271z M482,332v30h-30v-30H482z M422,362h-30v-30h30V362z M422,422h-30v-30h30V422z M332,392h30v30h-30V392z    M362,362h-30v-30h30V362z M332,482v-30h30v30H332z M392,452h30v30h-30V452z M452,482v-90h30v90H452z M482,242v60H332v-60H482z"/>
</g>















</svg>
