<svg id="Capa_1" enable-background="new 0 0 495.639 495.639" height="512" viewBox="0 0 495.639 495.639" width="512" xmlns="http://www.w3.org/2000/svg"><g><path d="m158.306 358.374 43.874-44.301c31.104 26.543 71.418 42.595 115.416 42.596 98.172-.002 178.042-79.874 178.043-178.047 0-98.173-79.87-178.043-178.043-178.043-55.318 0-104.823 25.361-137.504 65.066l-35.615-35.615h38.787v-30h-90l-.001 90h30l.001-38.787 39.522 39.523c-35.741 62.73-30.7 143.502 18.278 201.994l-43.972 44.399-25.71-25.711-111.382 111.385 72.738 72.738 111.381-111.383zm26.646-245.441 29.128 29.128c-4.084 11.589-6.215 23.911-6.215 36.562 0 60.506 49.225 109.73 109.73 109.73 60.643 0 109.731-49.078 109.729-109.73.002-60.641-49.079-109.729-109.729-109.729-36.019 0-68.445 17.251-88.891 45.365l-27.288-27.289c27.137-34.324 69.129-56.391 116.18-56.391 81.631 0 148.043 66.412 148.043 148.043-.001 81.632-66.413 148.045-148.043 148.047-81.631-.002-148.043-66.415-148.043-148.047 0-23.579 5.551-45.884 15.399-65.689zm211.556 77.129-56.182-56.181-45.997 46.002-44.028-44.028c27.544-43.145 87.665-49.612 123.672-13.608 18.485 18.484 25.992 43.585 22.535 67.815zm-102.179 32.249 45.999-46.002 44.764 44.763c-14.385 22.773-39.334 37.281-67.496 37.281-43.964 0-79.73-35.767-79.73-79.731 0-4.02.297-7.993.878-11.898zm-221.591 230.835-30.312-30.312 68.957-68.956 30.311 30.311z"/><path d="m255.119 405.609h240v30h-240z"/><path d="m165.119 465.608h180v30h-180z"/></g></svg>